{
    "accessors" : [
        {
            "bufferView" : 0,
            "componentType" : 5123,
            "count" : 1506,
            "max" : [
                571
            ],
            "min" : [
                0
            ],
            "type" : "SCALAR"
        },
        {
            "bufferView" : 1,
            "componentType" : 5126,
            "count" : 572,
            "max" : [
                52.1524772644043,
                41.46353530883789,
                42.89472579956055
            ],
            "min" : [
                -52.1524772644043,
                -45.85973358154297,
                -42.89472579956055
            ],
            "type" : "VEC3"
        },
        {
            "bufferView" : 2,
            "componentType" : 5126,
            "count" : 572,
            "max" : [
                1.0,
                1.0,
                0.9998779296875
            ],
            "min" : [
                -1.0,
                -1.0,
                -0.9943845868110657
            ],
            "type" : "VEC3"
        },
        {
            "bufferView" : 3,
            "componentType" : 5126,
            "count" : 572,
            "max" : [
                1.0,
                1.0,
                0.996630072593689,
                1.0
            ],
            "min" : [
                -1.0,
                -1.0,
                -1.0,
                -1.0
            ],
            "type" : "VEC4"
        },
        {
            "bufferView" : 4,
            "componentType" : 5126,
            "count" : 572,
            "max" : [
                0.9844626188278198,
                0.9902676409110427
            ],
            "min" : [
                0.0025354772806167603,
                0.0064160823822021484
            ],
            "type" : "VEC2"
        }
    ],
    "asset" : {
        "generator" : "Khronos Blender glTF 2.0 exporter",
        "version" : "2.0"
    },
    "bufferViews" : [
        {
            "buffer" : 0,
            "byteLength" : 3012,
            "byteOffset" : 0,
            "target" : 34963
        },
        {
            "buffer" : 0,
            "byteLength" : 6864,
            "byteOffset" : 3012,
            "target" : 34962
        },
        {
            "buffer" : 0,
            "byteLength" : 6864,
            "byteOffset" : 9876,
            "target" : 34962
        },
        {
            "buffer" : 0,
            "byteLength" : 9152,
            "byteOffset" : 16740,
            "target" : 34962
        },
        {
            "buffer" : 0,
            "byteLength" : 4576,
            "byteOffset" : 25892,
            "target" : 34962
        }
    ],
    "buffers" : [
        {
            "byteLength" : 30468,
            "uri" : "chest.bin"
        }
    ],
    "materials" : [
        {
            "name" : "chest_mat",
            "pbrMetallicRoughness" : {
                "baseColorFactor" : [
                    0.800000011920929,
                    0.800000011920929,
                    0.800000011920929,
                    1.0
                ],
                "metallicFactor" : 0.0
            }
        }
    ],
    "meshes" : [
        {
            "name" : "Untitled",
            "primitives" : [
                {
                    "attributes" : {
                        "NORMAL" : 2,
                        "POSITION" : 1,
                        "TANGENT" : 3,
                        "TEXCOORD_0" : 4
                    },
                    "indices" : 0,
                    "material" : 0
                }
            ]
        }
    ],
    "nodes" : [
        {
            "mesh" : 0,
            "name" : "treasurechest",
            "rotation" : [
                -2.1855692367012125e-08,
                0.0,
                -0.0,
                1.0
            ],
            "scale" : [
                0.0440770648419857,
                0.0440770648419857,
                0.0440770648419857
            ]
        }
    ],
    "scene" : 0,
    "scenes" : [
        {
            "name" : "Scene",
            "nodes" : [
                0
            ]
        }
    ]
}
